<?xml version="1.0" encoding="UTF-8" standalone="no"?>
<!-- Created with Inkscape (http://www.inkscape.org/) -->

<svg
   width="34.388092mm"
   height="34.287308mm"
   viewBox="0 0 34.388092 34.287308"
   version="1.1"
   id="svg1"
   xmlns:xlink="http://www.w3.org/1999/xlink"
   xmlns="http://www.w3.org/2000/svg"
   xmlns:svg="http://www.w3.org/2000/svg">
  <defs
     id="defs1">
    <linearGradient
       id="linearGradient8">
      <stop
         style="stop-color:#888f9f;stop-opacity:1;"
         offset="0"
         id="stop10" />
      <stop
         style="stop-color:#535d6c;stop-opacity:1;"
         offset="1"
         id="stop9" />
    </linearGradient>
    <linearGradient
       id="linearGradient6">
      <stop
         style="stop-color:#ae4f0c;stop-opacity:1;"
         offset="0"
         id="stop8" />
      <stop
         style="stop-color:#e46f1d;stop-opacity:1;"
         offset="0.50597703"
         id="stop6" />
      <stop
         style="stop-color:#a64c12;stop-opacity:1;"
         offset="1"
         id="stop7" />
    </linearGradient>
    <linearGradient
       xlink:href="#linearGradient6"
       id="linearGradient7"
       x1="18.014389"
       y1="110.66218"
       x2="42.689411"
       y2="86.833794"
       gradientUnits="userSpaceOnUse" />
    <radialGradient
       xlink:href="#linearGradient8"
       id="radialGradient10"
       cx="30.301546"
       cy="98.825226"
       fx="30.301546"
       fy="98.825226"
       r="17.186592"
       gradientTransform="matrix(1,0,0,0.98771719,0,1.2138513)"
       gradientUnits="userSpaceOnUse" />
  </defs>
  <g
     id="layer1"
     transform="translate(-13.114954,-81.604326)">
    <rect
       style="fill:url(#radialGradient10);fill-opacity:1;stroke-width:0.614246;paint-order:fill markers stroke"
       id="rect8"
       width="34.373184"
       height="33.950985"
       x="13.114955"
       y="81.849731" />
    <path
       id="rect1"
       style="fill:url(#linearGradient7);fill-opacity:1;stroke-width:0.635;paint-order:fill markers stroke"
       d="m 13.200745,81.604321 v 34.287309 h 5.828584 V 86.661377 h 28.458728 v -5.057056 z m 20.419425,7.607805 c -0.328072,0.0018 -0.659868,0.02179 -0.995288,0.06046 -2.674717,0.317384 -5.215043,1.773234 -7.620723,4.366659 -1.43539,1.547409 -2.50229,3.018067 -3.200839,4.41265 -0.689904,1.402603 -1.011626,2.720655 -0.965315,3.953765 0.04631,1.23311 0.356667,2.38926 0.931209,3.46904 0.591205,1.07915 1.461459,2.15241 2.61121,3.21892 1.236199,1.14671 2.298878,2.00356 3.187919,2.57091 l 1.792139,-1.93219 -2.995166,-2.77864 c -1.590634,-1.47548 -2.355673,-3.07755 -2.295467,-4.80694 0.07687,-1.73001 1.157773,-3.718926 3.242696,-5.966561 1.796241,-1.936423 3.64338,-3.061192 5.542297,-3.374471 1.915581,-0.313905 3.625733,0.226829 5.12992,1.622123 l 2.995166,2.778125 1.792655,-1.931665 -0.289388,-0.364835 C 42.290507,94.266405 41.95981,93.89501 41.490491,93.395333 41.029816,92.903675 40.5224,92.401143 39.969137,91.887931 38.032713,90.09169 35.916672,89.199798 33.62017,89.212126 Z m 11.230839,10.993124 v 13.29997 H 31.902445 v 2.30063 h 15.600599 v -15.6006 z" />
  </g>
</svg>
